<svg id="file-upload-icon" xmlns="http://www.w3.org/2000/svg" width="116.566" height="155.422" viewBox="0 0 116.566 155.422">
  <path id="file-upload-icon-2" data-name="file-upload-icon" d="M68,41.284V0H7.285A7.268,7.268,0,0,0,0,7.285V148.136a7.268,7.268,0,0,0,7.285,7.285h102a7.268,7.268,0,0,0,7.285-7.285V48.569H75.282A7.307,7.307,0,0,1,68,41.284Zm19.786,65.572H68V131.14A4.856,4.856,0,0,1,63.14,136H53.426a4.856,4.856,0,0,1-4.857-4.857V106.856H28.783a4.858,4.858,0,0,1-3.421-8.305L54.631,69.5a5.176,5.176,0,0,1,7.3,0L91.2,98.55A4.855,4.855,0,0,1,87.783,106.856Zm26.658-74.982L84.723,2.125A7.28,7.28,0,0,0,79.563,0H77.711V38.855h38.855V37A7.262,7.262,0,0,0,114.441,31.874Z" fill="#f0c0d0"/>
</svg>
